<svg xmlns="http://www.w3.org/2000/svg" width="256" height="256" viewBox="0 0 100 100"><rect width="100" height="100" rx="20" fill="#ff00ff"></rect><path fill="#ffff00" d="M16.48 22.57L25.12 23.00L35.13 22.57Q37.80 22.57 39.42 23.86Q41.04 25.16 41.04 27.39L41.04 27.39Q41.04 31.28 36.43 32.14L36.43 32.14Q36.36 37.54 36.36 58.06L36.36 58.06Q36.36 63.46 34.84 67.50Q33.33 71.53 30.74 73.76L30.74 73.76Q25.70 78.08 19.18 78.08Q12.67 78.08 8.49 75.31Q4.32 72.54 4.32 69.58L4.32 69.58Q4.32 67.57 5.61 66.34Q6.91 65.12 8.74 65.12Q10.58 65.12 13.32 67.03Q16.05 68.94 19.08 68.94Q22.10 68.94 24.33 65.98Q26.56 63.03 26.56 56.62L26.56 56.62L26.42 31.86L16.48 32.29Q13.75 32.29 12.16 30.99Q10.58 29.70 10.58 27.46Q10.58 25.23 12.20 23.90Q13.82 22.57 16.48 22.57L16.48 22.57ZM73.15 46.40L73.15 46.40L81.36 46.83L89.78 46.40Q92.37 46.40 94.03 48.06Q95.68 49.71 95.68 52.23L95.68 52.23Q95.68 64.04 89.38 71.06Q83.08 78.08 72.93 78.08Q62.78 78.08 55.87 69.87Q48.96 61.66 48.96 49.93Q48.96 38.19 56.08 30.06Q63.21 21.92 74.08 21.92L74.08 21.92Q81.07 21.92 86.76 24.94Q92.44 27.97 92.44 31.50L92.44 31.50Q92.44 33.51 91.15 34.70Q89.85 35.89 87.84 35.89Q85.82 35.89 84.02 34.70Q82.22 33.51 79.84 32.29Q77.47 31.06 74.08 31.06L74.08 31.06Q67.60 31.06 63.39 36.61Q59.18 42.15 59.18 49.86Q59.18 57.56 63.18 63.28Q67.17 69.01 73.29 69.01L73.29 69.01Q77.90 69.01 81.14 65.52Q84.38 62.02 85.03 55.69L85.03 55.69Q84.24 55.62 81.14 55.62L81.14 55.62L73.15 55.98Q70.48 55.98 68.83 54.64Q67.17 53.31 67.17 51.12Q67.17 48.92 68.83 47.66Q70.48 46.40 73.15 46.40Z"></path></svg>